<svg id="Layer_1" data-name="Layer 1" xmlns="http://www.w3.org/2000/svg" viewBox="0 0 476 674"><defs><style>.cls-1,.cls-2,.cls-3,.cls-4,.cls-5{fill:none;stroke-width:4px;}.cls-1{stroke:#243549;}.cls-1,.cls-2,.cls-3,.cls-4,.cls-5,.cls-6,.cls-7{stroke-miterlimit:10;}.cls-2{stroke:#ed1c24;}.cls-3{stroke:#f7931e;}.cls-4{stroke:#f0f;}.cls-5{stroke:#8292a7;}.cls-6{fill:#99b8d9;}.cls-6,.cls-7{stroke:#fff;}.cls-7{fill:#243549;}</style></defs><title>anything jare-01</title><path class="cls-1" d="M669.63,801.41a336.15,336.15,0,0,1-257.13.06" transform="translate(-402 -155)"/><path class="cls-2" d="M850.06,621.48A336.17,336.17,0,0,1,669.63,801.41" transform="translate(-402 -155)"/><path class="cls-3" d="M849.67,361.6a336.11,336.11,0,0,1,.39,259.87" transform="translate(-402 -155)"/><path class="cls-4" d="M669.43,182.5A336.17,336.17,0,0,1,849.67,361.6" transform="translate(-402 -155)"/><path class="cls-5" d="M413.54,182.1a336.16,336.16,0,0,1,255.89.4" transform="translate(-402 -155)"/><circle class="cls-6" cx="11.5" cy="27.5" r="10"/><circle class="cls-6" cx="268.5" cy="27.5" r="10"/><circle class="cls-6" cx="450.5" cy="208.5" r="10"/><circle class="cls-7" cx="450.5" cy="467.5" r="10"/><circle class="cls-7" cx="268.5" cy="648.5" r="10"/><circle class="cls-7" cx="10.5" cy="648.5" r="10"/></svg>